<svg width="486" height="321" viewBox="0 0 486 321" fill="none" xmlns="http://www.w3.org/2000/svg">
<path d="M509.296 320.792C515.456 296.749 511.029 262.135 505.061 249.492C492.933 223.998 469.062 219.438 448.657 201.198C409.963 166.585 414.006 88.8591 407.461 63.7797C384.553 -23.4801 284.642 -12.4949 247.681 44.5038C241.521 54.0381 221.693 86.7864 184.732 99.0153C142.766 112.695 105.612 94.8699 65.5708 118.084C53.4429 125.131 40.7376 136.323 31.6898 147.309C18.7919 162.854 9.35915 181.508 4.35401 201.613C-5.65628 241.823 2.04394 285.971 22.8345 320.792H509.296Z" fill="white" fill-opacity="0.1"/>
<path d="M318.523 320.792V280.996H419.203V320.792H424.208V178.813H419.203H318.523H313.518V320.792H318.523ZM318.523 187.311H419.203V228.143H411.695V205.343H413.235V201.405H396.488V205.343H398.028V228.143H381.665V205.343H383.205V201.405H366.457V205.343H367.997V228.143H338.351V205.343H339.891V201.405H323.143V205.343H324.683V228.143H319.1V187.311H318.523ZM318.523 236.848H419.203V272.291H318.523V236.848Z" stroke="white" stroke-width="2" stroke-miterlimit="10" stroke-linecap="round" stroke-linejoin="round"/>
<path d="M145.653 182.336H44.9724H39.9673V318.097H44.9724V280.167H145.653V318.097H150.658V182.336H145.653ZM145.653 238.299H44.9724V217.157H145.653V238.299ZM145.653 211.768H44.9724V187.518H145.653V211.768ZM397.065 159.537L395.91 158.708C395.718 158.501 395.525 158.293 395.525 157.879V148.966H396.103C396.68 148.966 397.258 148.552 397.258 147.723C397.258 146.894 396.873 146.479 396.103 146.479H388.787C388.21 146.479 387.632 146.894 387.632 147.723C387.632 148.552 388.017 148.966 388.787 148.966H389.365V157.879C389.365 158.086 389.172 158.501 388.98 158.708L387.825 159.537C382.435 163.06 380.51 170.522 383.59 176.533C384.167 177.776 385.515 178.606 386.862 178.606H398.22C399.568 178.606 400.723 177.776 401.493 176.533C404.38 170.522 402.455 162.853 397.065 159.537ZM388.017 147.93C388.017 147.515 388.402 147.101 388.787 147.101H396.103C396.488 147.101 396.873 147.515 396.873 147.93C396.873 148.344 396.488 148.759 396.103 148.759H395.333H389.557H388.787C388.402 148.759 388.017 148.344 388.017 147.93ZM387.825 159.744L388.98 158.915C389.365 158.708 389.557 158.293 389.557 157.879V148.966H394.948V150.624H392.253C392.06 150.624 392.06 150.624 392.06 150.832C392.06 151.039 392.06 151.039 392.253 151.039H394.948V155.184H392.253C392.06 155.184 392.06 155.184 392.06 155.392C392.06 155.599 392.06 155.599 392.253 155.599H394.948V157.879C394.948 158.293 395.14 158.708 395.525 158.915L396.68 159.744C396.873 159.951 397.065 159.951 397.258 160.159H393.6C393.408 160.159 393.408 160.159 393.408 160.366C393.408 160.573 393.408 160.573 393.6 160.573H397.643C398.99 161.61 400.145 163.06 400.915 164.719H395.91C395.718 164.719 395.718 164.719 395.718 164.926C395.718 165.133 395.718 165.133 395.91 165.133H401.108C401.493 165.962 401.878 166.999 401.878 168.035H384.552C385.13 165.34 386.862 162.853 389.172 161.402C389.365 161.195 389.365 160.988 389.365 160.988C389.172 160.78 388.98 160.78 388.98 160.78C386.285 162.439 384.745 165.133 383.975 168.035H382.242C383.205 164.719 384.937 161.61 387.825 159.744ZM364.724 165.133L363.954 164.511C363.762 164.304 363.762 164.304 363.762 164.097V157.879H364.147C364.532 157.879 364.917 157.464 364.917 157.05C364.917 156.635 364.532 156.221 364.147 156.221H359.142C358.757 156.221 358.372 156.635 358.372 157.05C358.372 157.464 358.757 157.879 359.142 157.879H359.527V164.097C359.527 164.304 359.334 164.511 359.334 164.511L358.564 165.133C354.714 167.62 353.559 172.802 355.676 176.947C356.061 177.776 357.024 178.398 357.987 178.398H365.879C366.842 178.398 367.612 177.776 368.189 176.947C369.729 172.802 368.574 167.62 364.724 165.133ZM358.372 157.257C358.372 157.05 358.564 156.635 358.949 156.635H363.954C364.147 156.635 364.532 156.842 364.532 157.257C364.532 157.671 364.339 157.879 363.954 157.879H363.377H359.334H358.757C358.564 157.671 358.372 157.464 358.372 157.257ZM358.372 165.34L359.142 164.719C359.334 164.511 359.527 164.304 359.527 163.889V157.671H363.377V158.708H361.452C361.452 158.708 361.259 158.708 361.259 158.915C361.259 159.122 361.259 159.122 361.452 159.122H363.377V162.024H361.452C361.452 162.024 361.259 162.024 361.259 162.231C361.259 162.439 361.259 162.439 361.452 162.439H363.377V164.097C363.377 164.304 363.569 164.719 363.762 164.926L364.532 165.548C364.724 165.548 364.724 165.755 364.917 165.755H362.414C362.414 165.755 362.222 165.755 362.222 165.962C362.222 165.962 362.222 166.169 362.414 166.169H365.302C366.264 166.999 367.034 168.035 367.612 169.071H364.147C364.147 169.071 363.954 169.071 363.954 169.278C363.954 169.486 363.954 169.486 364.147 169.486H367.804C367.997 170.108 368.189 170.729 368.382 171.558H356.254C356.639 169.693 357.794 168.035 359.527 166.999C359.719 166.999 359.719 166.791 359.527 166.584C359.527 166.377 359.334 166.377 359.142 166.584C357.409 167.828 356.061 169.693 355.676 171.766H354.521C355.099 168.864 356.254 166.584 358.372 165.34Z" fill="white"/>
<path d="M140.071 245.346H47.2837V269.597H140.071V245.346Z" stroke="#44A9DF" stroke-width="2" stroke-miterlimit="10" stroke-linecap="round" stroke-linejoin="round"/>
<path d="M231.511 90.7245L189.93 89.4809C187.235 77.6666 184.54 63.5724 184.925 60.0489C185.31 57.5617 186.08 56.318 187.042 55.9035C189.16 54.8672 191.085 53.209 192.432 50.9291C195.127 46.1619 201.865 39.9439 218.421 42.0166C228.623 43.2602 236.324 51.1363 236.709 54.0381C237.094 57.1471 235.939 59.4271 235.939 59.4271C235.939 59.4271 239.211 60.0489 237.864 66.4742C237.094 69.9977 234.206 80.9829 231.511 90.7245Z" fill="#0C3B55"/>
<path d="M220.923 89.896H201.672V131.557H220.923V89.896Z" fill="#F8CB9C"/>
<path d="M192.625 91.1389C192.625 91.1389 188.967 90.5171 185.887 87.4081C182.615 84.2991 183.385 79.1174 186.657 78.0811C189.93 77.0447 192.817 80.5683 192.817 80.5683L194.358 62.536C194.55 59.8415 196.668 57.9761 199.17 57.9761L224.581 58.8051C227.083 58.8051 229.201 61.0851 229.201 63.7796L229.009 81.1901C229.201 81.1901 234.784 75.1793 237.479 80.361C241.521 88.2372 229.201 92.5898 229.201 92.5898C229.201 92.5898 222.271 108.135 211.876 107.928C199.94 107.72 192.625 91.1389 192.625 91.1389Z" fill="#F8CB9C"/>
<path d="M201.676 72.4718C204.971 72.4103 207.635 71.8966 207.625 71.3244C207.616 70.7522 204.937 70.3381 201.642 70.3995C198.347 70.4609 195.683 70.9746 195.692 71.5469C195.702 72.1191 198.38 72.5332 201.676 72.4718Z" fill="#1E1F4D"/>
<path d="M227.489 72.3626C227.512 71.7907 224.86 71.206 221.567 71.0566C218.274 70.9072 215.587 71.2497 215.564 71.8215C215.542 72.3934 218.193 72.978 221.486 73.1275C224.779 73.2769 227.467 72.9344 227.489 72.3626Z" fill="#1E1F4D"/>
<path d="M210.528 107.928C207.448 107.72 204.56 106.684 201.865 104.819C201.673 104.611 201.48 104.197 201.673 103.99C201.865 103.782 202.25 103.575 202.443 103.782C207.641 107.513 214.571 107.513 219.768 103.99C219.961 103.782 220.346 103.782 220.538 104.197C220.731 104.404 220.731 104.819 220.346 105.026C217.651 107.306 214.186 108.135 210.528 107.928ZM190.893 84.0919C190.315 81.812 187.62 81.3975 187.428 81.3975C187.428 81.3975 187.235 81.3975 187.235 81.6047C187.235 81.812 187.235 81.812 187.428 81.812C187.428 81.812 190.123 82.2265 190.7 84.2992C190.7 84.5065 190.893 84.921 190.893 85.1283C190.315 85.3355 188.968 86.1646 188.198 85.7501C187.428 85.3355 187.428 84.7137 187.428 84.7137C187.428 84.7137 187.428 84.5065 187.235 84.5065C187.235 84.5065 187.042 84.5065 187.042 84.7137C187.042 84.7137 187.042 85.5428 188.005 86.1646C188.198 86.1646 188.39 86.3719 188.583 86.3719C189.353 86.3719 190.508 85.9574 190.7 85.7501C190.893 87.4082 190.508 88.6518 190.508 88.6518C190.508 88.6518 190.508 88.8591 190.7 88.8591C190.7 88.8591 190.893 88.8591 190.893 88.6518C190.893 88.4446 191.47 86.3719 190.893 84.0919ZM232.089 84.0919C232.666 81.812 235.361 81.3975 235.554 81.3975C235.554 81.3975 235.746 81.3975 235.746 81.6047C235.746 81.812 235.746 81.812 235.554 81.812C235.554 81.812 232.859 82.2265 232.281 84.2992C232.281 84.5065 232.089 84.921 232.089 85.1283C232.666 85.3355 234.014 86.1646 234.784 85.7501C235.554 85.3355 235.554 84.7137 235.554 84.7137C235.554 84.7137 235.554 84.5065 235.746 84.5065C235.746 84.5065 235.939 84.5065 235.939 84.7137C235.939 84.7137 235.939 85.5428 234.976 86.1646C234.784 86.1646 234.591 86.3719 234.399 86.3719C233.629 86.3719 232.474 85.9574 232.281 85.7501C232.089 87.4082 232.474 88.6518 232.474 88.6518C232.474 88.6518 232.474 88.8591 232.281 88.8591C232.281 88.8591 232.089 88.8591 232.089 88.6518C232.089 88.4446 231.511 86.3719 232.089 84.0919ZM213.608 85.9573L212.838 86.1646C212.068 86.3719 211.298 86.3719 210.528 86.1646L209.373 85.7501C208.988 85.5428 208.603 86.1646 208.988 86.5792L209.758 87.201C210.913 88.4446 212.838 88.4446 213.993 86.9937L214.378 86.5792C214.378 86.3719 214.186 85.7501 213.608 85.9573Z" fill="#D3914D"/>
<path d="M231.126 53.0021C236.709 53.2094 240.559 58.8056 239.211 64.6091C239.211 64.8164 239.019 65.2309 238.634 65.2309C236.709 66.2673 235.554 68.1327 235.554 70.2053L235.361 75.5943C235.361 75.5943 229.586 73.7289 229.394 70.4126C229.009 67.0963 229.009 67.0963 229.009 67.0963C229.009 67.0963 219.191 68.5472 211.876 65.8527C204.753 62.951 201.48 59.6347 201.48 59.6347C200.325 62.3292 197.823 64.1946 194.935 64.6091H194.358L191.855 72.8998H189.545C189.545 72.8998 189.16 70.2053 188.582 66.4745C187.62 58.8056 193.202 51.9658 200.325 52.173L231.126 53.0021Z" fill="#0C3B55"/>
<path d="M223.619 64.195C220.154 64.195 216.111 63.7805 212.646 62.5369C208.411 60.8787 205.523 59.0133 203.791 57.7697C203.598 57.5624 203.598 57.3552 203.791 57.3552C203.983 57.1479 204.176 57.1479 204.176 57.3552C205.908 58.5988 208.603 60.4642 212.839 62.1223C218.036 64.195 224.581 63.9877 227.854 63.5732C228.047 63.5732 228.239 63.7805 228.239 63.7805C228.239 63.9877 228.047 64.195 228.047 64.195C226.699 64.195 225.351 64.195 223.619 64.195Z" fill="#9D7627"/>
<path d="M202.421 102.551C202.477 102.534 202.525 102.534 202.577 102.559C207.921 106.369 215.231 106.59 220.597 102.765C220.617 102.754 220.638 102.745 220.656 102.737L220.662 102.75C220.687 102.803 220.704 102.854 220.717 102.897L220.625 102.966C217.638 105.177 214.097 106.178 210.75 105.978H210.749C207.776 105.777 204.812 104.78 202.404 103.001C202.365 102.951 202.321 102.88 202.3 102.8C202.283 102.738 202.28 102.678 202.293 102.619C202.332 102.59 202.376 102.565 202.421 102.551ZM210.551 84.7705L210.57 84.7773L210.59 84.7822C211.445 85.0124 212.305 85.0124 213.16 84.7822L213.931 84.5752L213.944 84.5703C213.95 84.5755 213.956 84.5808 213.963 84.5879C213.97 84.5953 213.976 84.6042 213.982 84.6123L213.819 84.7881L213.806 84.8018L213.794 84.8174C212.832 86.0252 211.266 86.0178 210.316 84.9951L210.292 84.9697L210.265 84.9473L209.64 84.4424L210.551 84.7705Z" fill="#D0AB84" stroke="#84D4FF"/>
<path d="M193.009 80.1533L211.105 92.3821L229.585 80.1533" stroke="#84D4FF" stroke-width="0.323" stroke-miterlimit="10" stroke-linecap="round" stroke-linejoin="round"/>
<path d="M206.673 83.1714C208.621 80.8844 212.147 80.5191 214.426 82.5952L214.44 82.6069L220.792 87.9956L220.98 88.1558L221.221 88.104C222.186 87.8962 223.101 87.7007 224.196 87.7007C229.841 87.7007 234.475 92.8159 234.668 98.8071C234.668 104.992 230.046 109.915 224.388 109.915C221.832 109.914 219.635 108.935 217.785 107.341L217.561 107.148L217.284 107.251C212.401 109.071 206.977 108.861 202.502 106.251L202.487 106.244L200.562 105.207L200.415 105.127L200.25 105.153L196.207 105.775L196.194 105.777C195.795 105.848 195.365 105.71 194.995 105.396C194.625 105.082 194.352 104.619 194.275 104.123L192.735 93.7593L192.734 93.7563C192.594 92.853 193.261 91.9169 194.086 91.6704L194.253 91.6304L199.631 90.8032L199.807 90.7769L199.926 90.644L206.664 83.1831L206.673 83.1714Z" fill="#0A3D58" stroke="#84D4FF"/>
<path d="M214.751 83.1016C214.814 83.1418 214.86 83.1874 214.888 83.2266L214.858 83.335L213.707 87.4668C212.87 90.1709 213.922 92.8709 216.002 94.4385V94.4395L222.355 99.207L222.385 99.2295L222.418 99.2471C222.451 99.265 222.461 99.2788 222.463 99.2812C222.465 99.2843 222.47 99.2931 222.473 99.3135C222.48 99.3663 222.468 99.4742 222.395 99.6328L222.384 99.6543L222.378 99.6504L216.025 94.8838L216.023 94.8828L215.811 94.7158C213.647 92.9586 212.814 89.9715 213.512 87.334L214.652 83.2383C214.685 83.1762 214.721 83.1321 214.751 83.1016ZM207.332 83.123L207.351 83.1885L208.506 87.334L208.588 87.6211C209.341 90.4494 208.249 93.3862 206.016 94.8662L205.992 94.8838L199.66 99.6338C199.64 99.6132 199.619 99.5902 199.596 99.5654C199.548 99.4429 199.539 99.3585 199.545 99.3135C199.548 99.2925 199.553 99.2841 199.555 99.2812C199.556 99.2788 199.565 99.265 199.599 99.2471L199.632 99.2295L199.662 99.207L206.015 94.4395L206.016 94.4385C208.095 92.871 209.151 89.9581 208.306 87.4541L207.159 83.335L207.147 83.2959L207.131 83.2588L207.108 83.1953C207.103 83.1721 207.102 83.1536 207.103 83.1396H207.188L207.299 83.0801C207.311 83.0735 207.323 83.0716 207.332 83.0684V83.123Z" fill="#3E3F6D" stroke="#84D4FF"/>
<path d="M223.04 91.2246C226.982 91.2246 230.24 94.6775 230.24 99.0156C230.24 103.354 226.982 106.806 223.04 106.806C219.098 106.806 215.84 103.354 215.84 99.0156C215.84 94.6775 219.098 91.2246 223.04 91.2246Z" fill="#3E3F6D" stroke="#84D4FF"/>
<path d="M225.736 91.2246C229.678 91.2246 232.936 94.6775 232.936 99.0156C232.936 103.354 229.678 106.806 225.736 106.806C221.794 106.806 218.536 103.354 218.536 99.0156C218.536 94.6775 221.793 91.2246 225.736 91.2246Z" fill="#E8B349" stroke="#84D4FF"/>
<path d="M226.697 91.2246C230.64 91.2246 233.897 94.6775 233.897 99.0156C233.897 103.354 230.64 106.806 226.697 106.806C222.755 106.806 219.497 103.354 219.497 99.0156C219.497 94.6775 222.755 91.2246 226.697 91.2246Z" fill="#3E3F6D" stroke="#84D4FF"/>
<path d="M227.854 93.9185C230.626 93.9187 232.936 96.3504 232.936 99.4292C232.936 102.508 230.626 104.94 227.854 104.94C225.081 104.94 222.771 102.508 222.771 99.4292C222.771 96.3503 225.081 93.9185 227.854 93.9185Z" fill="#E8B349" stroke="#84D4FF"/>
<path d="M204.753 85.3352H196.282C193.972 85.3352 192.24 83.4698 192.24 80.9826V76.2154C192.24 73.7282 193.972 71.8628 196.282 71.8628H204.753C207.063 71.8628 208.795 73.7282 208.795 76.2154V80.9826C208.795 83.2625 207.063 85.3352 204.753 85.3352ZM219.191 85.3352H227.661C229.971 85.3352 231.703 83.4698 231.703 80.9826V76.2154C231.703 73.7282 229.971 71.8628 227.661 71.8628H219.191C216.88 71.8628 215.148 73.7282 215.148 76.2154V80.9826C215.148 83.2625 216.88 85.3352 219.191 85.3352Z" fill="#E8775A" stroke="white" stroke-width="0.323" stroke-miterlimit="10"/>
<path d="M215.148 78.4961H208.795" stroke="white" stroke-width="0.323" stroke-miterlimit="10"/>
<path d="M192.24 80.5685L188.583 78.2886" stroke="white" stroke-width="0.323" stroke-miterlimit="10" stroke-linecap="round" stroke-linejoin="round"/>
<path d="M197.821 71.8628L203.981 84.9207" stroke="white" stroke-width="0.323" stroke-miterlimit="10" stroke-linecap="round" stroke-linejoin="round"/>
<path d="M201.672 73.9351L205.715 82.6403" stroke="white" stroke-width="0.323" stroke-miterlimit="10" stroke-linecap="round" stroke-linejoin="round"/>
<path d="M219.575 71.8628L225.735 85.1279" stroke="white" stroke-width="0.323" stroke-miterlimit="10" stroke-linecap="round" stroke-linejoin="round"/>
<path d="M223.233 74.1431L227.469 82.8483" stroke="white" stroke-width="0.323" stroke-miterlimit="10" stroke-linecap="round" stroke-linejoin="round"/>
<path d="M390.327 59.2202H363.954L358.756 68.7545C356.446 73.1072 359.334 78.4961 363.954 78.4961H390.52C395.14 78.4961 398.028 73.1072 395.717 68.7545L390.327 59.2202Z" fill="#E8B349"/>
<path d="M383.205 45.5403V26.0571H378.393H376.083H371.27V45.5403C371.27 45.9548 371.27 46.1621 371.078 46.5767L358.95 68.7543C356.64 73.107 359.527 78.4959 364.147 78.4959H375.89H379.163H390.906C395.526 78.4959 398.413 73.107 396.103 68.7543L383.975 46.5767C383.398 46.1621 383.205 45.9548 383.205 45.5403Z" stroke="white" stroke-miterlimit="10" stroke-linecap="round" stroke-linejoin="round"/>
<path d="M378.393 31.0312H383.013" stroke="white" stroke-miterlimit="10" stroke-linecap="round" stroke-linejoin="round"/>
<path d="M378.393 38.2861H383.013" stroke="white" stroke-miterlimit="10" stroke-linecap="round" stroke-linejoin="round"/>
<path d="M376.275 45.9556H382.821" stroke="white" stroke-miterlimit="10" stroke-linecap="round" stroke-linejoin="round"/>
<path d="M378.585 53.415H387.055" stroke="white" stroke-miterlimit="10" stroke-linecap="round" stroke-linejoin="round"/>
<path d="M381.665 61.9146H391.868" stroke="white" stroke-miterlimit="10" stroke-linecap="round" stroke-linejoin="round"/>
<path d="M387.633 70.2051H396.103" stroke="white" stroke-miterlimit="10" stroke-linecap="round" stroke-linejoin="round"/>
<path d="M370.704 22.9785H383.794C384.564 22.9785 385.334 23.8076 385.334 24.6367V24.8439C385.334 25.673 384.564 26.5021 383.794 26.5021H370.704C369.934 26.5021 369.164 25.673 369.164 24.8439V24.6367C369.164 23.6003 369.934 22.9785 370.704 22.9785Z" stroke="white" stroke-miterlimit="10" stroke-linecap="round" stroke-linejoin="round"/>
<path d="M373.003 50.1011L360.875 72.2787" stroke="white" stroke-miterlimit="10" stroke-linecap="round" stroke-linejoin="round"/>
<path d="M376.853 49.4783L363.763 51.7583C363.185 51.7583 362.415 52.5873 362.415 52.5873C359.527 54.4527 352.79 61.9144 350.865 64.6089C350.672 64.8161 342.972 74.5577 339.314 79.1176C338.929 79.3249 337.967 85.5429 337.967 85.5429L353.752 95.0773C353.752 95.0773 355.292 88.0301 355.1 87.6156C360.49 83.0557 364.34 76.6304 365.88 69.376C365.88 69.376 371.27 72.8996 373.003 70.8269C374.158 69.376 366.843 64.6089 366.843 64.6089C366.843 64.6089 375.12 68.3397 376.66 68.3397C378.2 68.3397 379.355 65.8525 378.008 64.6089C376.468 63.3653 367.613 58.3908 367.613 58.3908C367.613 58.3908 377.815 61.9144 379.933 61.7071C380.703 61.7071 381.473 59.4272 379.163 58.1836C378.585 57.769 375.698 56.5254 372.425 55.2818L377.623 54.4527C378.97 54.2455 379.741 52.7946 379.355 51.3437C378.97 49.8929 378.008 49.271 376.853 49.4783Z" fill="#F8CB9C"/>
<path d="M251.917 274.363L232.281 123.887L211.683 125.959L192.433 124.301L176.262 274.363C187.62 274.156 245.757 273.534 251.917 274.363Z" fill="#A3D460"/>
<path d="M230.741 121.4C230.548 118.913 229.778 116.633 229.008 114.975C228.623 114.146 227.083 114.146 226.698 114.975C226.121 116.633 225.543 118.498 224.388 119.327C222.463 120.985 211.683 124.923 211.683 124.923C211.683 124.923 201.48 119.949 199.747 117.876C198.785 116.84 198.4 114.975 198.207 113.109C198.015 112.073 196.475 111.866 195.897 112.695C194.935 114.353 193.78 116.633 193.202 119.12C192.24 124.302 192.24 124.302 192.24 124.302C192.24 124.302 198.977 135.08 200.132 136.323C201.288 137.567 201.288 137.567 201.288 137.567C201.288 137.567 204.56 129.898 207.255 128.447C209.95 126.996 211.683 126.996 211.683 126.996C211.683 126.996 213.415 127.203 215.918 129.069C218.421 130.934 220.923 138.81 220.923 138.81C220.923 138.81 220.923 138.81 222.271 137.774C223.618 136.738 231.318 126.789 231.318 126.789C231.318 126.789 231.126 126.582 230.741 121.4Z" fill="#44A9DF"/>
<path d="M260.771 320.793C277.519 316.233 286.952 311.88 286.952 311.88L270.012 249.907H143.728L139.3 320.586C139.3 320.586 139.685 320.793 140.263 321H260.771V320.793Z" fill="#191A39"/>
<path d="M331.999 80.5693L311.594 169.073L289.263 145.237C279.06 134.459 266.162 126.997 252.302 123.888L231.896 119.328C231.319 119.121 230.741 119.743 230.741 120.365C231.319 131.765 235.361 216.952 246.527 270.012C254.997 310.222 256.344 316.233 257.692 320.793H297.926L280.215 218.195L321.219 231.253C337.967 236.642 354.907 223.999 356.447 205.345L363.57 84.5074L331.999 80.5693Z" fill="white"/>
<path d="M307.358 182.751L311.593 169.485" stroke="white" stroke-width="0.646" stroke-miterlimit="10" stroke-linecap="round" stroke-linejoin="round"/>
<path d="M362.3 96.3105V96.5312L330.446 89.7129L330.485 89.46L362.3 96.3105Z" fill="#44A9DF" stroke="#44A9DF"/>
<path d="M360.489 90.9315C361.34 90.9315 362.029 90.1891 362.029 89.2734C362.029 88.3576 361.34 87.6152 360.489 87.6152C359.639 87.6152 358.949 88.3576 358.949 89.2734C358.949 90.1891 359.639 90.9315 360.489 90.9315Z" fill="#37373D"/>
<path d="M238.826 122.229L262.504 160.159L252.494 171.767L265.007 181.715L257.499 227.936" fill="#44A9DF"/>
<path d="M238.826 122.229L262.504 160.159L252.494 171.767L265.007 181.715L257.499 227.936" stroke="#44A9DF" stroke-width="0.646" stroke-miterlimit="10" stroke-linecap="round" stroke-linejoin="round"/>
<path d="M280.214 218.194L277.712 200.577L282.717 218.816L280.214 218.194Z" fill="#477AFC"/>
<path d="M106.575 320.792H126.403H166.636C167.984 316.232 169.332 310.221 177.802 270.011C188.967 216.743 193.01 131.763 193.587 120.364C193.587 119.742 193.01 119.12 192.432 119.327L172.027 123.887C165.866 125.338 156.241 130.52 147.578 136.116C134.296 144.407 125.248 158.915 123.323 175.29L106.575 320.792Z" fill="white"/>
<path d="M185.502 122.229L161.824 160.159L171.834 171.766L159.129 181.715L166.829 227.936" fill="#44A9DF"/>
<path d="M185.502 122.229L161.824 160.159L171.834 171.766L159.129 181.715L166.829 227.936" stroke="white" stroke-width="0.646" stroke-miterlimit="10" stroke-linecap="round" stroke-linejoin="round"/>
<path d="M219.768 294.054L213.993 298.199V318.097" stroke="#2D3471" stroke-width="0.646" stroke-miterlimit="10" stroke-linecap="round" stroke-linejoin="round"/>
<path d="M148.733 265.245L144.306 318.098" stroke="white" stroke-width="0.646" stroke-miterlimit="10" stroke-linecap="round" stroke-linejoin="round"/>
<path d="M206.1 301.722C205.138 306.697 205.908 311.878 208.41 316.645C209.565 318.718 211.49 319.962 213.801 319.962H234.014C236.324 319.962 238.249 318.718 239.404 316.645C241.906 312.086 242.484 306.697 241.714 301.722H206.1Z" fill="#E8B349"/>
<path d="M232.089 287.007L229.971 285.556C229.394 285.141 229.201 284.727 229.201 283.898V267.938H227.276H224.581H223.811H223.041H219.191V283.898C219.191 284.519 218.806 285.141 218.421 285.556L216.304 287.007C206.678 293.225 203.598 306.49 208.988 316.646C210.143 318.719 212.068 319.962 214.378 319.962H234.592C236.902 319.962 238.827 318.719 239.982 316.646C244.794 306.49 241.714 293.017 232.089 287.007Z" stroke="white" stroke-width="0.323" stroke-miterlimit="10" stroke-linecap="round" stroke-linejoin="round"/>
<path d="M217.458 264.621H230.356C231.318 264.621 231.896 265.45 231.896 266.279C231.896 267.316 231.126 267.937 230.356 267.937H217.458C216.495 267.937 215.918 267.108 215.918 266.279C215.725 265.45 216.495 264.621 217.458 264.621Z" stroke="white" stroke-width="0.323" stroke-miterlimit="10" stroke-linecap="round" stroke-linejoin="round"/>
<path d="M223.81 271.461H229.008" stroke="white" stroke-width="0.323" stroke-miterlimit="10" stroke-linecap="round" stroke-linejoin="round"/>
<path d="M223.81 279.545H229.008" stroke="white" stroke-width="0.323" stroke-miterlimit="10" stroke-linecap="round" stroke-linejoin="round"/>
<path d="M226.506 288.25H233.629" stroke="white" stroke-width="0.323" stroke-miterlimit="10" stroke-linecap="round" stroke-linejoin="round"/>
<path d="M230.548 296.333H239.981" stroke="white" stroke-width="0.323" stroke-miterlimit="10" stroke-linecap="round" stroke-linejoin="round"/>
<path d="M230.548 305.868H241.714" stroke="white" stroke-width="0.323" stroke-miterlimit="10" stroke-linecap="round" stroke-linejoin="round"/>
<path d="M230.548 314.988H239.981" stroke="white" stroke-width="0.323" stroke-miterlimit="10" stroke-linecap="round" stroke-linejoin="round"/>
<path d="M218.42 289.287C209.564 294.883 206.869 306.905 211.682 316.232" stroke="white" stroke-width="0.646" stroke-miterlimit="10" stroke-linecap="round" stroke-linejoin="round"/>
<path d="M277.904 301.309H252.494L247.489 310.428C245.179 314.574 248.066 319.755 252.494 319.755H277.904C282.332 319.755 285.027 314.574 282.91 310.428L277.904 301.309Z" fill="#44A9DF"/>
<path d="M270.975 288.251V269.597H266.355H264.237H259.617V288.251C259.617 288.665 259.617 288.873 259.425 289.287L247.682 310.636C245.372 314.781 248.26 319.963 252.687 319.963H263.852H266.933H278.098C282.526 319.963 285.221 314.781 283.103 310.636L271.36 289.287C270.975 288.873 270.975 288.665 270.975 288.251Z" stroke="#44A9DF" stroke-miterlimit="10" stroke-linecap="round" stroke-linejoin="round"/>
<path d="M266.354 274.363H270.782" stroke="#44A9DF" stroke-width="0.323" stroke-miterlimit="10" stroke-linecap="round" stroke-linejoin="round"/>
<path d="M266.354 281.204H270.782" stroke="#44A9DF" stroke-width="0.323" stroke-miterlimit="10" stroke-linecap="round" stroke-linejoin="round"/>
<path d="M264.237 288.665H270.59" stroke="#44A9DF" stroke-width="0.323" stroke-miterlimit="10" stroke-linecap="round" stroke-linejoin="round"/>
<path d="M266.354 295.711H274.632" stroke="#44A9DF" stroke-width="0.323" stroke-miterlimit="10" stroke-linecap="round" stroke-linejoin="round"/>
<path d="M269.435 304.003H279.252" stroke="#44A9DF" stroke-width="0.323" stroke-miterlimit="10" stroke-linecap="round" stroke-linejoin="round"/>
<path d="M275.017 311.877H283.295" stroke="#44A9DF" stroke-width="0.323" stroke-miterlimit="10" stroke-linecap="round" stroke-linejoin="round"/>
<path d="M259.424 266.279H271.745C272.515 266.279 273.285 267.108 273.285 267.937C273.285 268.766 272.515 269.595 271.745 269.595H259.424C258.654 269.595 257.884 268.766 257.884 267.937C257.884 267.108 258.462 266.279 259.424 266.279Z" stroke="white" stroke-width="0.323" stroke-miterlimit="10" stroke-linecap="round" stroke-linejoin="round"/>
<path d="M261.158 292.602L249.607 313.951" stroke="white" stroke-width="0.646" stroke-miterlimit="10" stroke-linecap="round" stroke-linejoin="round"/>
<path d="M93.8623 260C95.243 260 96.3623 258.881 96.3623 257.5C96.3623 256.119 95.243 255 93.8623 255C92.4816 255 91.3623 256.119 91.3623 257.5C91.3623 258.881 92.4816 260 93.8623 260Z" fill="#74A533"/>
<path d="M186.849 64.1954C185.694 63.159 184.731 61.0864 184.731 59.221C184.731 57.9773 185.116 56.7337 185.886 56.1119L186.271 55.6974C188.004 54.0393 190.892 51.7593 191.854 49.6866C193.202 46.7849 197.437 42.8468 202.827 40.9814C206.485 39.7378 212.452 39.116 218.805 42.8468L218.42 43.4686C212.26 39.7378 206.485 40.3596 202.827 41.6032C197.629 43.2613 193.587 46.9921 192.239 49.8939C191.277 52.1738 188.389 54.6611 186.464 56.1119L186.079 56.5265C185.116 57.3556 185.116 58.3919 185.116 59.221C185.116 61.0864 186.079 62.9518 187.042 63.5736L186.849 64.1954Z" fill="#0C3B55"/>
</svg>
